<?xml version="1.0" encoding="UTF-8" standalone="no"?>
<!-- Created with Inkscape (http://www.inkscape.org/) -->

<svg
   width="16"
   height="16"
   viewBox="0 0 16 16"
   version="1.1"
   id="svg1"
   xml:space="preserve"
   xmlns="http://www.w3.org/2000/svg"
   xmlns:svg="http://www.w3.org/2000/svg"><defs
     id="defs1" /><g
     id="g11"
     transform="matrix(0.24851508,0,0,0.23775845,-5.7076129,-9.0482051)"><path
       id="rect2"
       style="fill:#fe422e;fill-opacity:1;stroke-width:0.0600001;stroke-miterlimit:5.9"
       d="m 55.417426,40.553575 c -2.556129,-0.01779 -5.116715,0.938363 -7.088981,2.883375 l -3.379448,3.335187 h -4.746946 c -5.54,0 -9.996878,4.457344 -9.996878,9.997344 v 4.542754 l -3.237982,3.195536 c -3.944531,3.890023 -3.992187,10.193045 -0.10217,14.137576 l 3.340152,3.384475 v 4.739907 c 0,5.54 4.456878,10.00556 9.996878,10.00556 h 4.550466 l 3.182969,3.228391 c 3.890022,3.94453 10.194135,3.98858 14.138666,0.0986 l 3.371589,-3.326971 h 4.754804 c 5.54,0 9.996879,-4.46556 9.996879,-10.00556 V 82.23519 l 3.237982,-3.195536 c 3.944531,-3.890023 3.992192,-10.201259 0.10217,-14.14579 l -3.340152,-3.384475 v -4.739908 c 0,-5.54 -4.456879,-9.997344 -9.996879,-9.997344 h -4.542606 l -3.190828,-3.23661 C 60.5221,41.563262 57.973555,40.571359 55.417426,40.553575 Z m -14.68095,15.238352 a 2.0892082,1.9685205 66.134621 0 1 1.414652,0.648964 L 54.741536,68.393345 67.441973,56.350529 a 1.926845,2.0449565 23.869933 0 1 2.742854,0.07393 l 0.03144,0.04107 a 1.9898865,2.1118623 23.86994 0 1 -0.204339,2.957308 L 57.649433,71.153499 70.043362,82.917014 a 2.0449669,1.926835 66.134621 0 1 0.18862,2.866946 l -0.03144,0.03286 a 2.1118731,1.9898761 66.134621 0 1 -2.829305,0.07393 L 54.741536,73.905439 42.190424,85.816819 a 2.106924,2.2360738 23.869923 0 1 -3.002207,-0.08215 1.9685308,2.0891974 23.869917 0 1 0.353663,-2.916234 L 51.841499,71.153499 39.549739,59.488562 a 2.2360853,2.106913 66.134621 0 1 -0.212197,-3.129818 2.0892082,1.9685205 66.134621 0 1 1.398934,-0.566817 z" /></g></svg>
