<?xml version="1.0" encoding="UTF-8" standalone="no"?>
<!-- Created with Inkscape (http://www.inkscape.org/) -->

<svg
   width="16"
   height="16"
   viewBox="0 0 16 16"
   version="1.1"
   id="svg1"
   xml:space="preserve"
   sodipodi:docname="iconOkBlue.svg"
   inkscape:version="1.4.2 (f4327f4, 2025-05-13)"
   xmlns:inkscape="http://www.inkscape.org/namespaces/inkscape"
   xmlns:sodipodi="http://sodipodi.sourceforge.net/DTD/sodipodi-0.dtd"
   xmlns="http://www.w3.org/2000/svg"
   xmlns:svg="http://www.w3.org/2000/svg"><sodipodi:namedview
     id="namedview1"
     pagecolor="#505050"
     bordercolor="#ffffff"
     borderopacity="1"
     inkscape:showpageshadow="0"
     inkscape:pageopacity="0"
     inkscape:pagecheckerboard="1"
     inkscape:deskcolor="#505050"
     inkscape:zoom="16"
     inkscape:cx="5.1875"
     inkscape:cy="9.34375"
     inkscape:window-width="1366"
     inkscape:window-height="715"
     inkscape:window-x="-8"
     inkscape:window-y="22"
     inkscape:window-maximized="1"
     inkscape:current-layer="g11" /><defs
     id="defs1"><inkscape:path-effect
       effect="fillet_chamfer"
       id="path-effect10"
       is_visible="true"
       lpeversion="1"
       nodesatellites_param="F,0,0,1,0,0,0,1 @ F,0,0,1,0,0,0,1 @ F,0,0,1,0,0,0,1 @ F,0,0,1,0,2.9960951,0,1 @ F,0,0,1,0,3.2394202,0,1 @ F,0,0,1,0,0,0,1 @ F,0,0,1,0,0,0,1"
       radius="0"
       unit="px"
       method="auto"
       mode="F"
       chamfer_steps="1"
       flexible="false"
       use_knot_distance="true"
       apply_no_radius="true"
       apply_with_radius="true"
       only_selected="false"
       hide_knots="false" /><inkscape:path-effect
       effect="fillet_chamfer"
       id="path-effect9"
       is_visible="true"
       lpeversion="1"
       nodesatellites_param="F,0,0,1,0,3.1136206,0,1 @ F,0,0,1,0,2.9712203,0,1 @ F,0,0,1,0,3.1136206,0,1 @ F,0,0,1,0,3.1024,0,1"
       radius="0"
       unit="px"
       method="auto"
       mode="F"
       chamfer_steps="1"
       flexible="false"
       use_knot_distance="true"
       apply_no_radius="true"
       apply_with_radius="true"
       only_selected="false"
       hide_knots="false" /><inkscape:path-effect
       effect="fillet_chamfer"
       id="path-effect6"
       is_visible="true"
       lpeversion="1"
       nodesatellites_param="F,0,0,1,0,3.1136206,0,1 @ F,0,0,1,0,2.9712203,0,1 @ F,0,0,1,0,3.1136206,0,1 @ F,0,0,1,0,3.1024,0,1"
       radius="0"
       unit="px"
       method="auto"
       mode="F"
       chamfer_steps="1"
       flexible="false"
       use_knot_distance="true"
       apply_no_radius="true"
       apply_with_radius="true"
       only_selected="false"
       hide_knots="false" /><inkscape:path-effect
       effect="fillet_chamfer"
       id="path-effect4"
       is_visible="true"
       lpeversion="1"
       nodesatellites_param="F,0,0,1,0,3.1136206,0,1 @ F,0,0,1,0,2.9712203,0,1 @ F,0,0,1,0,3.1136206,0,1 @ F,0,0,1,0,3.1024,0,1"
       radius="0"
       unit="px"
       method="auto"
       mode="F"
       chamfer_steps="1"
       flexible="false"
       use_knot_distance="true"
       apply_no_radius="true"
       apply_with_radius="true"
       only_selected="false"
       hide_knots="false" /></defs><g
     id="g11"
     transform="matrix(0.24851508,0,0,0.23775845,-5.7076129,-9.0482051)"><path
       id="rect2"
       style="fill:#1800ad;fill-opacity:1;stroke-width:0.0600001;stroke-miterlimit:5.9"
       d="M 55.417426 40.553575 C 52.861297 40.535785 50.300711 41.491938 48.328445 43.43695 L 44.948997 46.772137 L 40.202051 46.772137 C 34.662051 46.772137 30.205173 51.229481 30.205173 56.769481 L 30.205173 61.312235 L 26.967191 64.507771 C 23.02266 68.397794 22.975004 74.700816 26.865021 78.645347 L 30.205173 82.029822 L 30.205173 86.769729 C 30.205173 92.309729 34.662051 96.775289 40.202051 96.775289 L 44.752517 96.775289 L 47.935486 100.00368 C 51.825508 103.94821 58.129621 103.99228 62.074152 100.10226 L 65.445741 96.775289 L 70.200545 96.775289 C 75.740545 96.775289 80.197424 92.309729 80.197424 86.769729 L 80.197424 82.23519 L 83.435406 79.039654 C 87.379937 75.149631 87.427598 68.838395 83.537576 64.893864 L 80.197424 61.509389 L 80.197424 56.769481 C 80.197424 51.229481 75.740545 46.772137 70.200545 46.772137 L 65.657939 46.772137 L 62.467111 43.535527 C 60.5221 41.563262 57.973555 40.571359 55.417426 40.553575 z M 67.47341 56.596972 A 3.197498 3.0319437 63.470945 0 1 69.359613 57.270581 A 3.0262114 2.8695257 63.470945 0 1 69.988347 61.47653 L 54.144239 83.51669 A 3.197498 3.0319437 63.470945 0 1 52.588121 84.617466 A 2.9343591 3.0951083 26.460517 0 1 49.61735 83.812421 A 3.0948466 2.9346071 63.470945 0 1 49.130081 83.171671 A 3.0948466 2.9346071 63.470945 0 0 49.122222 83.163456 L 41.074421 72.024262 L 40.453545 71.161714 A 3.0558181 3.055818 5.3511351 0 1 40.437827 71.13707 A 3.0558181 3.055818 5.3511351 0 1 41.318055 66.972194 A 3.1335115 3.1335115 0 0 1 42.834877 66.46288 A 3.1335115 3.1335115 0 0 1 45.373393 67.497938 A 3.1335115 3.1335115 0 0 0 45.381252 67.506153 L 51.762907 76.337003 L 65.076359 57.804539 A 3.197498 3.0319437 63.470945 0 1 67.47341 56.596972 z " /></g></svg>
